<svg width="54" height="55" viewBox="0 0 54 55" fill="none" xmlns="http://www.w3.org/2000/svg">
<path d="M27.0002 0.833984C41.7202 0.833984 53.6668 12.7807 53.6668 27.5007C53.6668 42.2207 41.7202 54.1673 27.0002 54.1673C12.2802 54.1673 0.333496 42.2207 0.333496 27.5007C0.333496 12.7807 12.2802 0.833984 27.0002 0.833984ZM11.0615 36.61C14.9762 42.45 20.8535 46.1673 27.4268 46.1673C33.9975 46.1673 39.8775 42.4527 43.7895 36.61C39.3515 32.4622 33.5013 30.1588 27.4268 30.1673C21.3514 30.1581 15.5002 32.4616 11.0615 36.61V36.61ZM27.0002 24.834C29.1219 24.834 31.1567 23.9911 32.657 22.4908C34.1573 20.9905 35.0002 18.9557 35.0002 16.834C35.0002 14.7123 34.1573 12.6774 32.657 11.1771C31.1567 9.67684 29.1219 8.83398 27.0002 8.83398C24.8784 8.83398 22.8436 9.67684 21.3433 11.1771C19.843 12.6774 19.0002 14.7123 19.0002 16.834C19.0002 18.9557 19.843 20.9905 21.3433 22.4908C22.8436 23.9911 24.8784 24.834 27.0002 24.834V24.834Z" fill="#FF9900"/>
</svg>
