<svg width="24" height="24" viewBox="0 0 24 24" fill="none" xmlns="http://www.w3.org/2000/svg">
<path d="M15.8939 3.38037C16.5063 2.769 17.3322 2.41924 18.1974 2.40476C19.0627 2.39029 19.8997 2.71224 20.5323 3.30278C21.1648 3.89333 21.5435 4.70635 21.5884 5.57054C21.6333 6.43474 21.341 7.28263 20.7731 7.93557L20.6171 8.10357L9.0899 19.6308C8.84419 19.8761 8.54819 20.0653 8.2223 20.1852L8.0243 20.2488L3.1583 21.576C3.06404 21.6019 2.96487 21.6045 2.8694 21.5834C2.77393 21.5623 2.68507 21.5182 2.61055 21.4549C2.53602 21.3916 2.47809 21.311 2.4418 21.2203C2.4055 21.1295 2.39195 21.0312 2.4023 20.934L2.4215 20.838L3.7487 15.9732C3.8399 15.6372 4.0031 15.3252 4.2263 15.0612L4.3667 14.9076L15.8939 3.38037ZM14.8619 6.11037L5.2151 15.756C5.10488 15.8664 5.01724 15.9972 4.9571 16.1412L4.9067 16.2888L3.8543 20.1408L7.7087 19.0908C7.8091 19.0634 7.90551 19.023 7.9955 18.9708L8.1239 18.8844L8.2415 18.7824L17.8871 9.13437L14.8619 6.11037ZM19.7687 4.22877C19.3913 3.85113 18.8864 3.6282 18.3531 3.60378C17.8198 3.57936 17.2966 3.7552 16.8863 4.09677L16.7423 4.22877L15.7103 5.26077L18.7343 8.28717L19.7687 7.25517C20.1463 6.8778 20.3693 6.37289 20.3937 5.83957C20.4181 5.30626 20.2423 4.78308 19.9007 4.37277L19.7687 4.22877Z" fill="#FF9900"/>
</svg>
