<svg width="20" height="20" viewBox="0 0 20 20" fill="none" xmlns="http://www.w3.org/2000/svg">
<path d="M18.4018 9.49739C17.7153 8.0509 16.8982 6.87122 15.9507 5.95832L14.9569 6.95208C15.7673 7.72649 16.4731 8.73957 17.0835 10.0013C15.4585 13.3646 13.1518 14.9622 9.9995 14.9622C9.05328 14.9622 8.18173 14.8165 7.38485 14.5251L6.30809 15.6019C7.41487 16.1129 8.64533 16.3685 9.9995 16.3685C13.7534 16.3685 16.5542 14.4134 18.4018 10.5032C18.4761 10.346 18.5146 10.1742 18.5146 10.0003C18.5146 9.8264 18.4761 9.65464 18.4018 9.49739ZM17.1602 3.23489L16.3276 2.40129C16.3131 2.38677 16.2959 2.37524 16.2769 2.36738C16.2579 2.35952 16.2376 2.35547 16.2171 2.35547C16.1965 2.35547 16.1762 2.35952 16.1572 2.36738C16.1383 2.37524 16.121 2.38677 16.1065 2.40129L13.9704 4.53645C12.7927 3.93489 11.469 3.63411 9.9995 3.63411C6.24559 3.63411 3.44481 5.58918 1.59716 9.49934C1.52289 9.6566 1.48438 9.82835 1.48438 10.0023C1.48438 10.1762 1.52289 10.3479 1.59716 10.5052C2.33531 12.0599 3.22398 13.306 4.26317 14.2437L2.19638 16.3099C2.1671 16.3392 2.15065 16.3789 2.15065 16.4203C2.15065 16.4618 2.1671 16.5015 2.19638 16.5308L3.03017 17.3646C3.05947 17.3939 3.09919 17.4103 3.14062 17.4103C3.18204 17.4103 3.22176 17.3939 3.25106 17.3646L17.1602 3.45598C17.1748 3.44147 17.1863 3.42424 17.1942 3.40527C17.202 3.3863 17.2061 3.36597 17.2061 3.34544C17.2061 3.3249 17.202 3.30457 17.1942 3.2856C17.1863 3.26663 17.1748 3.2494 17.1602 3.23489ZM2.91552 10.0013C4.54247 6.63801 6.84911 5.04036 9.9995 5.04036C11.0647 5.04036 12.0333 5.22317 12.912 5.59485L11.539 6.9679C10.8887 6.62095 10.1441 6.49219 9.41514 6.6006C8.68613 6.70902 8.01127 7.04887 7.49011 7.57003C6.96895 8.09118 6.6291 8.76604 6.52068 9.49505C6.41227 10.2241 6.54103 10.9686 6.88798 11.6189L5.25868 13.2482C4.35692 12.4523 3.57958 11.3739 2.91552 10.0013ZM7.73388 10.0013C7.73422 9.65689 7.8158 9.31742 7.97198 9.01047C8.12817 8.70351 8.35456 8.43773 8.63277 8.23471C8.91097 8.03169 9.23314 7.89716 9.57311 7.84204C9.91307 7.78692 10.2612 7.81278 10.5893 7.9175L7.83759 10.6693C7.76862 10.4533 7.73363 10.228 7.73388 10.0013Z" fill="#80899D"/>
<path d="M9.92129 12.1869C9.85371 12.1869 9.78711 12.1838 9.72109 12.1777L8.68945 13.2094C9.30994 13.447 9.98598 13.4998 10.6358 13.3614C11.2857 13.223 11.8816 12.8993 12.3514 12.4295C12.8212 11.9597 13.1449 11.3638 13.2833 10.714C13.4217 10.0641 13.3689 9.38807 13.1312 8.76758L12.0996 9.79922C12.1057 9.86523 12.1088 9.93183 12.1088 9.99941C12.1089 10.2867 12.0525 10.5712 11.9426 10.8367C11.8327 11.1022 11.6716 11.3434 11.4684 11.5465C11.2653 11.7497 11.0241 11.9108 10.7586 12.0207C10.4931 12.1306 10.2086 12.1871 9.92129 12.1869Z" fill="#80899D"/>
</svg>
