<svg width="19" height="15" viewBox="0 0 19 15" fill="none" xmlns="http://www.w3.org/2000/svg">
<path d="M18.5 4.70312C18.1987 5.0346 17.8571 5.32589 17.4955 5.57701C15.8181 6.71205 14.1306 7.85714 12.4933 9.04241C11.6496 9.66518 10.6049 10.4286 9.51005 10.4286H9.5H9.48996C8.39509 10.4286 7.35045 9.66518 6.5067 9.04241C4.86942 7.8471 3.18192 6.71205 1.51451 5.57701C1.14286 5.32589 0.801339 5.0346 0.5 4.70312V12.6786C0.5 13.5625 1.22321 14.2857 2.10714 14.2857H16.8929C17.7768 14.2857 18.5 13.5625 18.5 12.6786V4.70312ZM18.5 1.75C18.5 0.866071 17.7667 0.142857 16.8929 0.142857H2.10714C1.03237 0.142857 0.5 0.986607 0.5 1.97098C0.5 2.88504 1.51451 4.02009 2.22768 4.50223C3.7846 5.58705 5.36161 6.67187 6.91853 7.76674C7.57143 8.21875 8.67634 9.14286 9.48996 9.14286H9.5H9.51005C10.3237 9.14286 11.4286 8.21875 12.0815 7.76674C13.6384 6.67187 15.2154 5.58705 16.7824 4.50223C17.6663 3.88951 18.5 2.875 18.5 1.75Z" fill="#FF9900"/>
</svg>
