<svg width="22" height="22" viewBox="0 0 22 22" fill="none" xmlns="http://www.w3.org/2000/svg">
<path d="M10.8667 5.89232C11.1013 5.89232 11.3263 5.98553 11.4923 6.15145C11.6582 6.31736 11.7514 6.5424 11.7514 6.77704V10.3159H15.2903C15.5249 10.3159 15.75 10.4091 15.9159 10.5751C16.0818 10.741 16.175 10.966 16.175 11.2007C16.175 11.4353 16.0818 11.6603 15.9159 11.8262C15.75 11.9922 15.5249 12.0854 15.2903 12.0854H11.7514V15.6243C11.7514 15.8589 11.6582 16.0839 11.4923 16.2499C11.3263 16.4158 11.1013 16.509 10.8667 16.509C10.632 16.509 10.407 16.4158 10.2411 16.2499C10.0752 16.0839 9.98195 15.8589 9.98195 15.6243V12.0854H6.44306C6.20841 12.0854 5.98338 11.9922 5.81746 11.8262C5.65155 11.6603 5.55833 11.4353 5.55833 11.2007C5.55833 10.966 5.65155 10.741 5.81746 10.5751C5.98338 10.4091 6.20841 10.3159 6.44306 10.3159H9.98195V6.77704C9.98195 6.5424 10.0752 6.31736 10.2411 6.15145C10.407 5.98553 10.632 5.89232 10.8667 5.89232ZM0.25 11.2007C0.25 9.80645 0.524608 8.4259 1.05815 7.13783C1.59168 5.84976 2.3737 4.67938 3.35955 3.69353C4.3454 2.70769 5.51577 1.92567 6.80384 1.39213C8.09192 0.858593 9.47247 0.583984 10.8667 0.583984C12.2609 0.583984 13.6414 0.858593 14.9295 1.39213C16.2176 1.92567 17.3879 2.70769 18.3738 3.69353C19.3596 4.67938 20.1416 5.84976 20.6752 7.13783C21.2087 8.4259 21.4833 9.80645 21.4833 11.2007C21.4833 14.0164 20.3648 16.7168 18.3738 18.7078C16.3828 20.6988 13.6824 21.8173 10.8667 21.8173C8.05095 21.8173 5.35056 20.6988 3.35955 18.7078C1.36854 16.7168 0.25 14.0164 0.25 11.2007ZM10.8667 2.35343C8.52024 2.35343 6.26991 3.28554 4.61074 4.94472C2.95156 6.6039 2.01944 8.85422 2.01944 11.2007C2.01944 13.5471 2.95156 15.7974 4.61074 17.4566C6.26991 19.1158 8.52024 20.0479 10.8667 20.0479C13.2131 20.0479 15.4634 19.1158 17.1226 17.4566C18.7818 15.7974 19.7139 13.5471 19.7139 11.2007C19.7139 8.85422 18.7818 6.6039 17.1226 4.94472C15.4634 3.28554 13.2131 2.35343 10.8667 2.35343Z" fill="#010101"/>
</svg>
