<svg width="40" height="40" viewBox="0 0 40 40" fill="none" xmlns="http://www.w3.org/2000/svg">
<path fill-rule="evenodd" clip-rule="evenodd" d="M20 40C31.0457 40 40 31.0457 40 20C40 8.9543 31.0457 0 20 0C8.9543 0 0 8.9543 0 20C0 31.0457 8.9543 40 20 40ZM30.1044 17.138C31.2852 15.9756 31.3001 14.0762 30.1378 12.8954C28.9755 11.7147 27.076 11.6997 25.8953 12.862L17.3332 21.2904L14.1044 18.112C12.9236 16.9497 11.0242 16.9647 9.86188 18.1454C8.69957 19.3262 8.71452 21.2256 9.89529 22.388L15.2286 27.638C16.3963 28.7873 18.2701 28.7873 19.4377 27.638L30.1044 17.138Z" fill="#FF9900"/>
</svg>
